<svg xmlns="http://www.w3.org/2000/svg" viewBox="0 0 200 200">
  <defs>
    <linearGradient id="bg5" x1="0" y1="0" x2="1" y2="1">
      <stop offset="0%" stop-color="#1a2332"/>
      <stop offset="100%" stop-color="#0f1724"/>
    </linearGradient>
    <linearGradient id="glow5" x1="0.5" y1="0" x2="0.5" y2="1">
      <stop offset="0%" stop-color="#ff6b6b" stop-opacity="0.3"/>
      <stop offset="100%" stop-color="#ff6b6b" stop-opacity="0"/>
    </linearGradient>
  </defs>
  <circle cx="100" cy="100" r="96" fill="url(#bg5)" stroke="#ff6b6b" stroke-width="2"/>
  <circle cx="100" cy="100" r="88" fill="none" stroke="url(#glow5)" stroke-width="4"/>
  <!-- Magnet / Field -->
  <rect x="60" y="80" width="80" height="40" rx="6" fill="#ff6b6b" opacity="0.9"/>
  <rect x="60" y="80" width="40" height="40" rx="6" fill="#01acff" opacity="0.9"/>
  <!-- N S labels -->
  <text x="80" y="107" text-anchor="middle" font-family="sans-serif" font-weight="bold" font-size="18" fill="#fff">N</text>
  <text x="120" y="107" text-anchor="middle" font-family="sans-serif" font-weight="bold" font-size="18" fill="#fff">S</text>
  <!-- Field lines -->
  <path d="M40 65 Q65 65, 70 85" fill="none" stroke="#ff6b6b" stroke-width="2" stroke-linecap="round"/>
  <path d="M40 100 Q60 100, 70 100" fill="none" stroke="#ff6b6b" stroke-width="2" stroke-linecap="round"/>
  <path d="M40 135 Q65 135, 70 115" fill="none" stroke="#ff6b6b" stroke-width="2" stroke-linecap="round"/>
  <path d="M160 65 Q135 65, 130 85" fill="none" stroke="#01acff" stroke-width="2" stroke-linecap="round"/>
  <path d="M160 100 Q140 100, 130 100" fill="none" stroke="#01acff" stroke-width="2" stroke-linecap="round"/>
  <path d="M160 135 Q135 135, 130 115" fill="none" stroke="#01acff" stroke-width="2" stroke-linecap="round"/>
  <!-- Iron filings dots -->
  <circle cx="35" cy="65" r="2" fill="#ff6b6b"/>
  <circle cx="30" cy="100" r="2" fill="#ff6b6b"/>
  <circle cx="35" cy="135" r="2" fill="#ff6b6b"/>
  <circle cx="165" cy="65" r="2" fill="#01acff"/>
  <circle cx="170" cy="100" r="2" fill="#01acff"/>
  <circle cx="165" cy="135" r="2" fill="#01acff"/>
</svg>